<?xml version="1.0" encoding="utf-8"?>
<!-- Generator: Adobe Illustrator 14.0.0, SVG Export Plug-In . SVG Version: 6.00 Build 43363)  -->
<!DOCTYPE svg PUBLIC "-//W3C//DTD SVG 1.1//EN" "http://www.w3.org/Graphics/SVG/1.1/DTD/svg11.dtd">
<svg version="1.1"
	 id="svg2" sodipodi:docbase="C:\Documents and Settings\Jeff\Desktop\Inkscape\Kmt diagrams\Goddesses" inkscape:version="0.45.1" sodipodi:version="0.32" sodipodi:docname="Sekhmet.svg" inkscape:output_extension="org.inkscape.output.svg.inkscape" xmlns:inkscape="http://www.inkscape.org/namespaces/inkscape" xmlns:svg="http://www.w3.org/2000/svg" xmlns:sodipodi="http://sodipodi.sourceforge.net/DTD/sodipodi-0.dtd" xmlns:cc="http://web.resource.org/cc/" xmlns:dc="http://purl.org/dc/elements/1.1/" xmlns:rdf="http://www.w3.org/1999/02/22-rdf-syntax-ns#"
	 xmlns="http://www.w3.org/2000/svg" xmlns:xlink="http://www.w3.org/1999/xlink" x="0px" y="0px" width="350px" height="701.969px"
	 viewBox="0 63.031 350 701.969" enable-background="new 0 63.031 350 701.969" xml:space="preserve">
<rect x="42.968" y="163.617" fill="#FFA14A" stroke="#000000" stroke-linecap="round" stroke-linejoin="round" width="47.063" height="3.315"/>
<rect x="42.968" y="172.457" fill="#FFA14A" stroke="#000000" stroke-linecap="round" stroke-linejoin="round" width="47.063" height="3.315"/>
<rect x="42.968" y="181.297" fill="#FFA14A" stroke="#000000" stroke-linecap="round" stroke-linejoin="round" width="47.063" height="3.315"/>
<path id="path21136_2_" sodipodi:nodetypes="cccccccccccscccccccccccccccccccsccccccccccccccccccccsccccccccc" fill="#F5CA44" stroke="#000000" stroke-linecap="round" stroke-linejoin="round" d="
	M142.689,283.18l3.606-14.425c2.002-13.663-0.746-28.91,18.243-36.91l42.19-15.91l39.903,4.773
	c13.934,3.893,27.243,7.011,42.638,12.833c10.771,4.073,17.4,13.79,15.485,32.668c-0.396,3.811-1.019,8.032-1.484,12.092l-0.212,14
	c0.491,24.395,0.396,48.79-0.75,73.185c1.063,2.688,1.148,4.931,0.75,7.637c1.101,22.415-0.831,44.83-4.243,67.245l-0.849,12.939
	l-19.304-0.424l-0.212-12.94c-2.655-25.504-5.26-50.146-0.336-75.901c1.265-20.455-3.192-49.035-2.634-72.376l1.061-14.85v-2.333
	h-0.424c-12.093,22.047-23.411,44.403-27.152,69.79c-2.863,8.566,32.505,57.781,5.091,75.942
	c-2.227,51.896-8.406,108.599-14.001,159.732c2.788,33.375,4.926,75.659-1.061,113.489c0.036,12.091-0.836,24.183,0.637,36.273
	c0.941,4.725,1.815,10.027,3.182,13.577c0.616,1.6-0.202,8.356-3.818,9.758c-1.728,0.245-13.615,1.613-15.211-1.39
	c-23.749,0.856-8.169,1.785-68.262,2c-6.141-0.853-4.657-4.838-3.605-7.505l9.015,0.955c16.856-2.906,46.525-16.434,52.396-25.88
	l1.909-28.001h-3.606l-2.033,29.799c0.006,0.318-0.09,2.323-0.237,2.683c-6.483,5.162-25.574,16.788-48.281,21.422l-9.117-1.022
	c-0.839,2.765-2.638,6.12,2.925,7.55l-34.472-0.08c-1.392-1.031-2.733-4.337-0.424-7.213l7.637,0.425
	c48.575-23.665,60.165-15.148,60.331-53.579c-0.189-30.6,2.22-61.199,5.4-91.799c-0.6-12.1-3.657-22.726-1.8-36.3
	c-23.216-113.913-13.025-148.718-1.8-228.596c1.087-7.738,3.213-15.938-6.601-22.8c-2.396-2-8.471-8.558-9.899-12.9
	c-3.151-0.392-3.436-3.316-1.2-5.1c0.188-6.55,0.063-8.884,5.4-14.649l-3-9.95h-0.9l-0.9,2.25l-3.033,15.187
	c-3.333,16.891-14.441,52.79-28.299,63.349c-11.153-2.834-14.161-6.566-24.347-17.467c-16.976-22.459-24.897-44.159-29.947-63.609
	l-4.007-11.008l14.506-4.055l5.064,9.193c15.699,29.761,21.569,32.38,33.146,49.442c0.432-13.393,6.702-30.868,6.702-30.868"/>
<sodipodi:namedview  height="765px" width="350px" id="base" inkscape:pageshadow="2" inkscape:current-layer="layer1" inkscape:window-height="712" inkscape:window-y="-4" inkscape:window-x="1020" inkscape:window-width="1024" inkscape:document-units="px" inkscape:pageopacity="0.0" guidetolerance="10" inkscape:cy="282.92038" inkscape:cx="296.17858" showborder="true" objecttolerance="10" bordercolor="#666666" gridtolerance="10000" borderopacity="1.0" inkscape:zoom="0.45254834" pagecolor="#ffffff">
	</sodipodi:namedview>
<g id="g22363" transform="matrix(0.2099968,0,0,0.2099968,775.94597,294.57531)">
	
		<path id="path2718" sodipodi:nodetypes="cccccccsssccccccc" fill="#002255" stroke="#000000" stroke-linecap="round" stroke-linejoin="round" d="
		M-2345.281,1196.135c12.589-4.111,22.903-2.539,32.832,0l-5.79-157.499l75.001,5.008c-2.292-11.282-3.069-22.559,0-33.841
		l-75.001,5.26l0,0c15.709-28.074,37.733-52.972,45.657-94.03c16.007-82.976-26.302-79.489-55.656-79.754
		c-31.957-0.288-79.131,4.706-59.501,83.293c9.026,36.147,31.032,64.575,48.787,90.491l0,0l-84.288-5.26
		c2.832,11.282,2.558,22.559,0,33.841l84.288-5.008l0,0L-2345.281,1196.135z"/>
	
		<path id="path2720" sodipodi:nodetypes="cssscc" fill="#FFFFFF" stroke="#000000" stroke-linecap="round" stroke-linejoin="round" d="
		M-2338.951,991.872c-16.197-21.992-31.743-43.481-35.659-71.848c-7.91-57.344,21.866-63.752,45.955-63.896
		c21.415-0.126,53.07,2.906,38.9,63.394c-6.65,28.377-16.988,53.902-28.483,72.35
		C-2325.433,1001.615-2333.157,1000.02-2338.951,991.872z"/>
</g>
<path id="path21143" sodipodi:nodetypes="ccccccccccc" fill="#F5CA44" stroke="#000000" stroke-linecap="round" stroke-linejoin="round" d="
	M278.452,452.989c-0.974,4.869-3.379,10.023-5.728,15.167c-3.104,4.928-3.306,11.216-2.439,17.183l-0.318,5.621
	c8.742,1.047,0.296-10.62,5.834-14.955l0.849,8.062c1.585,1.509,3.147,2.702,4.454,0.318c1.556,1.742,3.111,1.616,4.667-0.318
	c1.902,2.459,3.455,0.728,5.092,0c1.743,1.364,3.589,1.849,4.772-1.272c0.344-8.515,2.891-16.783,2.28-29.274"/>
<path id="path21420" sodipodi:nodetypes="ccccccccscccc" fill="#FFFFFF" stroke="#000000" stroke-linecap="round" stroke-linejoin="round" d="
	M211.647,693.225h27.418c5.986-37.83,3.795-79.902,1.007-113.277c5.595-51.134,11.774-107.837,14.001-159.732
	c27.414-18.161-7.954-67.376-5.091-75.942c2.239-15.194,7.335-28.202,13.544-41.809h-89.131c1.428,4.343,7.384,9.25,9.78,11.25
	c9.813,6.862,7.688,15.062,6.601,22.8c-11.225,79.878-21.416,114.683,1.8,228.596c-1.857,13.574,1.2,24.2,1.8,36.3
	c-3.181,30.6-5.59,61.199-5.4,91.799L211.647,693.225z"/>
<path id="path21480" sodipodi:nodetypes="ccccc" fill="#FFD800" d="M239.567,686.007l-0.975,6.996l-50.152-0.158l0.062-6.854
	L239.567,686.007z"/>
<path id="path21482" sodipodi:nodetypes="cc" fill="none" stroke="#000000" stroke-width="0.7" stroke-linecap="round" stroke-linejoin="round" d="
	M187.95,687.055h51.833"/>
<path id="path21484" sodipodi:nodetypes="cc" fill="none" stroke="#000000" stroke-width="0.7" stroke-linecap="round" stroke-linejoin="round" d="
	M188.246,693.15h50.721"/>
<path id="path21486" sodipodi:nodetypes="cc" fill="none" stroke="#000000" stroke-width="0.7" stroke-linecap="round" stroke-linejoin="round" d="
	M187.95,691.502h51"/>
<g id="g21488" transform="matrix(0.2099968,0,0,0.2099968,1104.403,672.73828)">
	
		<path id="path21490" sodipodi:nodetypes="cc" fill="none" stroke="#000000" stroke-width="0.7" stroke-linecap="round" stroke-linejoin="round" d="
		M-4349.168,69.087v19.178"/>
	
		<path id="path21492" sodipodi:nodetypes="cc" fill="none" stroke="#000000" stroke-width="0.7" stroke-linecap="round" stroke-linejoin="round" d="
		M-4340.137,69.087v19.178"/>
	
		<path id="path21494" sodipodi:nodetypes="cc" fill="none" stroke="#000000" stroke-width="0.7" stroke-linecap="round" stroke-linejoin="round" d="
		M-4330.576,69.087v19.178"/>
</g>
<g id="g21496" transform="matrix(0.2099968,0,0,0.2099968,1117.2002,672.73828)">
	
		<path id="path21498" sodipodi:nodetypes="cc" fill="none" stroke="#000000" stroke-width="0.7" stroke-linecap="round" stroke-linejoin="round" d="
		M-4349.166,69.087v19.178"/>
	
		<path id="path21500" sodipodi:nodetypes="cc" fill="none" stroke="#000000" stroke-width="0.7" stroke-linecap="round" stroke-linejoin="round" d="
		M-4340.14,69.087v19.178"/>
	
		<path id="path21502" sodipodi:nodetypes="cc" fill="none" stroke="#000000" stroke-width="0.7" stroke-linecap="round" stroke-linejoin="round" d="
		M-4330.574,69.087v19.178"/>
</g>
<g id="g21504" transform="matrix(0.2099968,0,0,0.2099968,1131.3573,672.73828)">
	
		<path id="path21506" sodipodi:nodetypes="cc" fill="none" stroke="#000000" stroke-width="0.7" stroke-linecap="round" stroke-linejoin="round" d="
		M-4349.165,69.087v19.178"/>
	
		<path id="path21508" sodipodi:nodetypes="cc" fill="none" stroke="#000000" stroke-width="0.7" stroke-linecap="round" stroke-linejoin="round" d="
		M-4340.139,69.087v19.178"/>
	
		<path id="path21510" sodipodi:nodetypes="cc" fill="none" stroke="#000000" stroke-width="0.7" stroke-linecap="round" stroke-linejoin="round" d="
		M-4330.573,69.087v19.178"/>
</g>
<g id="g21512" transform="matrix(0.2099968,0,0,0.2099968,1145.2923,672.73828)">
	
		<path id="path21514" sodipodi:nodetypes="cc" fill="none" stroke="#000000" stroke-width="0.7" stroke-linecap="round" stroke-linejoin="round" d="
		M-4349.167,69.087v19.178"/>
	
		<path id="path21516" sodipodi:nodetypes="cc" fill="none" stroke="#000000" stroke-width="0.7" stroke-linecap="round" stroke-linejoin="round" d="
		M-4340.136,69.087v19.178"/>
	
		<path id="path21518" sodipodi:nodetypes="cc" fill="none" stroke="#000000" stroke-width="0.7" stroke-linecap="round" stroke-linejoin="round" d="
		M-4330.575,69.087v19.178"/>
</g>
<path id="path21520" sodipodi:nodetypes="cc" fill="none" stroke="#000000" stroke-width="0.7" stroke-linecap="round" stroke-linejoin="round" d="
	M188.034,685.646h51.958"/>
<g id="g21522" transform="matrix(0.2099968,0,0,0.2099968,1177.9919,287.86622)">
	
		<path id="path21524" sodipodi:nodetypes="ccccc" fill="#FFFFFF" stroke="#000000" stroke-linecap="round" stroke-linejoin="round" d="
		M-4798.925-277.342l87.748,347.052h59.497l-115.636-359.013L-4798.925-277.342z"/>
	
		<path id="path21526" sodipodi:nodetypes="ccccc" fill="#FFFFFF" stroke="#000000" stroke-width="0.5" stroke-linecap="round" stroke-linejoin="round" d="
		M-4793.391-279.467l91.324,349.177h41.816l-113.529-356.66L-4793.391-279.467z"/>
</g>
<g id="g21528" transform="matrix(0.2099968,0,0,0.2099968,1008.2889,289.77538)">
	
		<path id="path21530" sodipodi:nodetypes="ccccc" fill="#FFFFFF" stroke="#000000" stroke-linecap="round" stroke-linejoin="round" d="
		M-3506.222-294.683l-150.374,355.106h59.525l119.175-345.694L-3506.222-294.683z"/>
	
		<path id="path21532" sodipodi:nodetypes="ccccc" fill="#FFFFFF" stroke="#000000" stroke-width="0.5" stroke-linecap="round" stroke-linejoin="round" d="
		M-3500.585-292.828l-146.919,353.251h41.342l122.165-347.973L-3500.585-292.828z"/>
</g>
<g id="g21534" transform="matrix(0.2079625,2.9158854e-2,-2.9158854e-2,0.2079625,976.92594,348.74028)">
	
		<path id="path21536" sodipodi:nodetypes="ccccc" fill="#FAC53A" stroke="#000000" stroke-linecap="round" stroke-linejoin="round" d="
		M-3970.334,172.802l127.427,7.632l-4.231,70.599l-131.271-6.787L-3970.334,172.802z"/>
	
		<path id="path21538" sodipodi:nodetypes="ccccc" fill="#0044AA" stroke="#000000" stroke-linecap="round" stroke-linejoin="round" d="
		M-3971.301,180.972l128.032,8.336l-1.46,23.247l-129.221-8.474L-3971.301,180.972z"/>
	
		<path id="path21540" sodipodi:nodetypes="ccccc" fill="#0044AA" stroke="#000000" stroke-linecap="round" stroke-linejoin="round" d="
		M-3974.56,212.286l129.191,8.896l-1.681,21.639l-130.159-7.427L-3974.56,212.286z"/>
</g>
<g id="g21550" transform="matrix(0.2099593,-3.9651088e-3,3.9651088e-3,0.2099593,1105.6611,280.58706)">
	
		<path id="path21552" sodipodi:nodetypes="ccccc" fill="#FAC53A" stroke="#000000" stroke-linecap="round" stroke-linejoin="round" d="
		M-3947.542-90.073l127.434,7.63l-2.464,71.349l-131.651-5.514L-3947.542-90.073z"/>
	
		<path id="path21554" sodipodi:nodetypes="ccccc" fill="#0044AA" stroke="#000000" stroke-linecap="round" stroke-linejoin="round" d="
		M-3948.505-81.901l128.03,8.339l-0.741,23.256l-128.507-8.459L-3948.505-81.901z"/>
	
		<path id="path21556" sodipodi:nodetypes="ccccc" fill="#0044AA" stroke="#000000" stroke-linecap="round" stroke-linejoin="round" d="
		M-3951.408-50.583l129.549,8.902l-0.616,22.021l-131.248-6.376L-3951.408-50.583z"/>
</g>
<g id="g21558" transform="matrix(0.2097767,-9.6115256e-3,9.6115256e-3,0.2097767,1011.4065,691.15397)">
	
		<path id="path21560" sodipodi:nodetypes="ccccc" fill="#FAC53A" stroke="#000000" stroke-linecap="round" stroke-linejoin="round" d="
		M-3920.919-133.949l110.491,9.876l-8.51,70.71l-117.155-12.155L-3920.919-133.949z"/>
	
		<path id="path21562" sodipodi:nodetypes="ccccc" fill="#0044AA" stroke="#000000" stroke-linecap="round" stroke-linejoin="round" d="
		M-3922.497-126.634l111.187,11.053l-2.047,19.994l-114.104-9.05L-3922.497-126.634z"/>
	
		<path id="path21564" sodipodi:nodetypes="ccccc" fill="#0044AA" stroke="#000000" stroke-linecap="round" stroke-linejoin="round" d="
		M-3929.126-94.826l114.136,10.49l-2.344,20.688l-116.873-8.982L-3929.126-94.826z"/>
</g>
<g id="g21566" transform="matrix(0.2091162,-1.9211284e-2,1.9211284e-2,0.2091162,1036.1899,671.49726)">
	
		<path id="path21568" sodipodi:nodetypes="ccccc" fill="#FAC53A" stroke="#000000" stroke-linecap="round" stroke-linejoin="round" d="
		M-3909.605-209.139l115.52,10.332l-7.25,70.831l-119.924-12.413L-3909.605-209.139z"/>
	
		<path id="path21570" sodipodi:nodetypes="ccccc" fill="#0044AA" stroke="#000000" stroke-linecap="round" stroke-linejoin="round" d="
		M-3910.929-201.803l115.959,11.493l-2.047,19.991l-117.12-9.326L-3910.929-201.803z"/>
	
		<path id="path21572" sodipodi:nodetypes="ccccc" fill="#0044AA" stroke="#000000" stroke-linecap="round" stroke-linejoin="round" d="
		M-3916.054-169.855l117.656,10.813l-2.508,22.466l-119.223-10.995L-3916.054-169.855z"/>
</g>
<g id="g21574" transform="matrix(0.2099968,0,0,0.2099968,775.94597,294.57531)">
	<g id="g21576" transform="translate(1592.2951,738.29278)">
		
			<path id="path21578" sodipodi:nodetypes="ccccc" fill="#FAC53A" stroke="#000000" stroke-linecap="round" stroke-linejoin="round" d="
			M-3961.269-44.29l97.225,0.758l-4.041,61.366l-92.677-3.534L-3961.269-44.29z"/>
		
			<path id="path21580" sodipodi:nodetypes="ccccc" fill="#0044AA" stroke="#000000" stroke-linecap="round" stroke-linejoin="round" d="
			M-3961.269-35.45l96.467,1.26l-0.99,18.96l-95.226-1.497L-3961.269-35.45z"/>
	</g>
	
		<path id="path21582" sodipodi:nodetypes="ccccc" fill="#FAC53A" stroke="#000000" stroke-linecap="round" stroke-linejoin="round" d="
		M-2368.974,694.002l97.225,0.758l-4.041,61.366l-92.682-3.534L-2368.974,694.002z"/>
	
		<path id="path21584" sodipodi:nodetypes="ccccc" fill="#0044AA" stroke="#000000" stroke-linecap="round" stroke-linejoin="round" d="
		M-2368.974,702.843l96.467,1.26l-0.99,18.96l-95.226-1.497L-2368.974,702.843z"/>
	
		<path id="path21586" sodipodi:nodetypes="ccccc" fill="#0044AA" stroke="#000000" stroke-linecap="round" stroke-linejoin="round" d="
		M-2368.974,727.485l94.956,1.26l-0.995,18.964l-93.709-1.497L-2368.974,727.485z"/>
</g>
<path id="path21138_1_" sodipodi:nodetypes="ccccccccc" fill="#F5CA44" stroke="#000000" stroke-linecap="round" stroke-linejoin="round" d="
	M84.241,244.087c-6.173-4.469-16.198-9.671-27.616-7.289l-4.264-1.14c-1.819,4.438,2.688,5.57,5.203,4.915
	c-1.975,0.843-2.648,2.011-1.019,3.749c-1.714,0.92-2.053,2.151-0.569,3.789c-2.156,0.413-2.389,2.548-0.719,3.775
	c-2.218,1.104-2.081,2.719-1.234,3.653c1.251,3.438,24.407,1.038,26.614,1.013c0,0,0.751,0.191,1.286,1.023s0.892,1.901,0.892,1.901
	l14.718-3.716C97.533,255.76,87.89,246.728,84.241,244.087z"/>
<g id="g21542" transform="matrix(0.1496706,0.1473002,-0.1473002,0.1496706,804.76923,797.06153)">
	
		<path id="path21544" sodipodi:nodetypes="ccccc" fill="#FAC53A" stroke="#000000" stroke-linecap="round" stroke-linejoin="round" d="
		M-4157.494,540.252l-31.789,73.872l-55.515-27.142l36.175-62.559L-4157.494,540.252z"/>
	
		<path id="path21546" sodipodi:nodetypes="ccccc" fill="#0044AA" stroke="#000000" stroke-linecap="round" stroke-linejoin="round" d="
		M-4164.369,538.119l-32.412,71.562l-16.456-7.986l33.393-68.019L-4164.369,538.119z"/>
	
		<path id="path21548" sodipodi:nodetypes="ccccc" fill="#0044AA" stroke="#000000" stroke-linecap="round" stroke-linejoin="round" d="
		M-4187.069,530.892l-32.957,68.017l-16.451-7.987l33.933-64.47L-4187.069,530.892z"/>
</g>
<path id="path20365" sodipodi:nodetypes="cccc" fill="none" stroke="#000000" d="M63.35,240.885
	c6.674,0.798,9.286,1.65,10.029,3.396 M79.606,241.056c-3.933-2.732-6.579-3.307-13.06-4.604"/>
<path id="path10093" sodipodi:nodetypes="ccc" fill="none" stroke="#000000" stroke-width="0.2519" d="M303.423,282.125l-0.05-3.116
	c0.012-1.522,1.008-6.863,1.275-10.566"/>
<g id="g21422" transform="matrix(0.2099968,0,0,0.2099968,1107.1409,289.77538)">
	<path id="path21424" sodipodi:nodetypes="ccccc" fill="#FFD800" d="M-4025.874,62.855l-14.746,33.645h-376.275
		c-10.105-10.212-20.583-22.382-26.247-33.645H-4025.874z"/>
	<path id="path21426" sodipodi:nodetypes="cc" fill="none" stroke="#000000" stroke-linecap="round" stroke-linejoin="round" d="
		M-4441.565,68.175h415.185"/>
	<path id="path21428" sodipodi:nodetypes="cc" fill="none" stroke="#000000" stroke-linecap="round" stroke-linejoin="round" d="
		M-4416.876,97.198h377.321"/>
	<path id="path21430" sodipodi:nodetypes="cc" fill="none" stroke="#000000" stroke-linecap="round" stroke-linejoin="round" d="
		M-4425.521,89.349h389.635"/>
	<g id="g21432" transform="translate(-69.530817,0)">
		<path id="path21434" sodipodi:nodetypes="cc" fill="none" stroke="#000000" stroke-linecap="round" stroke-linejoin="round" d="
			M-4349.168,69.087v19.178"/>
		<path id="path21436" sodipodi:nodetypes="cc" fill="none" stroke="#000000" stroke-linecap="round" stroke-linejoin="round" d="
			M-4340.137,69.087v19.178"/>
		<path id="path21438" sodipodi:nodetypes="cc" fill="none" stroke="#000000" stroke-linecap="round" stroke-linejoin="round" d="
			M-4330.576,69.087v19.178"/>
	</g>
	<g id="g21440" transform="translate(0.6914551,0)">
		<path id="path21442" sodipodi:nodetypes="cc" fill="none" stroke="#000000" stroke-linecap="round" stroke-linejoin="round" d="
			M-4349.166,69.087v19.178"/>
		<path id="path21444" sodipodi:nodetypes="cc" fill="none" stroke="#000000" stroke-linecap="round" stroke-linejoin="round" d="
			M-4340.139,69.087v19.178"/>
		<path id="path21446" sodipodi:nodetypes="cc" fill="none" stroke="#000000" stroke-linecap="round" stroke-linejoin="round" d="
			M-4330.573,69.087v19.178"/>
	</g>
	<g id="g21448" transform="translate(68.197083,0)">
		<path id="path21450" sodipodi:nodetypes="cc" fill="none" stroke="#000000" stroke-linecap="round" stroke-linejoin="round" d="
			M-4349.167,69.087v19.178"/>
		<path id="path21452" sodipodi:nodetypes="cc" fill="none" stroke="#000000" stroke-linecap="round" stroke-linejoin="round" d="
			M-4340.14,69.087v19.178"/>
		<path id="path21454" sodipodi:nodetypes="cc" fill="none" stroke="#000000" stroke-linecap="round" stroke-linejoin="round" d="
			M-4330.574,69.087v19.178"/>
	</g>
	<g id="g21456" transform="translate(137.1282,0)">
		<path id="path21458" sodipodi:nodetypes="cc" fill="none" stroke="#000000" stroke-linecap="round" stroke-linejoin="round" d="
			M-4349.166,69.087v19.178"/>
		<path id="path21460" sodipodi:nodetypes="cc" fill="none" stroke="#000000" stroke-linecap="round" stroke-linejoin="round" d="
			M-4340.139,69.087v19.178"/>
		<path id="path21462" sodipodi:nodetypes="cc" fill="none" stroke="#000000" stroke-linecap="round" stroke-linejoin="round" d="
			M-4330.573,69.087v19.178"/>
	</g>
	<g id="g21464" transform="translate(210.05224,0)">
		<path id="path21466" sodipodi:nodetypes="cc" fill="none" stroke="#000000" stroke-linecap="round" stroke-linejoin="round" d="
			M-4349.167,69.087v19.178"/>
		<path id="path21468" sodipodi:nodetypes="cc" fill="none" stroke="#000000" stroke-linecap="round" stroke-linejoin="round" d="
			M-4340.141,69.087v19.178"/>
		<path id="path21470" sodipodi:nodetypes="cc" fill="none" stroke="#000000" stroke-linecap="round" stroke-linejoin="round" d="
			M-4330.575,69.087v19.178"/>
	</g>
	<g id="g21472" transform="translate(274.702,0)">
		<path id="path21474" sodipodi:nodetypes="cc" fill="none" stroke="#000000" stroke-linecap="round" stroke-linejoin="round" d="
			M-4349.167,69.087v19.178"/>
		<path id="path21476" sodipodi:nodetypes="cc" fill="none" stroke="#000000" stroke-linecap="round" stroke-linejoin="round" d="
			M-4340.141,69.087v19.178"/>
		<path id="path21478" sodipodi:nodetypes="cc" fill="none" stroke="#000000" stroke-linecap="round" stroke-linejoin="round" d="
			M-4330.575,69.087v19.178"/>
	</g>
</g>
<path id="path21420_1_" sodipodi:nodetypes="ccccccccscccc" fill="none" stroke="#000000" stroke-linecap="round" stroke-linejoin="round" d="
	M211.647,693.225h27.418c5.986-37.83,3.795-79.902,1.007-113.277c5.595-51.134,11.774-107.837,14.001-159.732
	c27.414-18.161-7.954-67.376-5.091-75.942c2.239-15.194,7.335-28.202,13.544-41.809h-89.131c1.428,4.343,7.384,9.25,9.78,11.25
	c9.813,6.862,7.688,15.062,6.601,22.8c-11.225,79.878-21.416,114.683,1.8,228.596c-1.857,13.574,1.2,24.2,1.8,36.3
	c-3.181,30.6-5.59,61.199-5.4,91.799L211.647,693.225z"/>
<path fill="#FFE6AE" stroke="#000000" stroke-linecap="round" stroke-linejoin="round" d="M67.461,146.236
	c-12.138,0-17.171,6.217-16.579,16.579c0.617,10.787,11.485,43.548,11.485,43.548l-4.394-1.397c0.752,2.998,0.68,5.994,0,8.991
	l4.394-1.331l-1.682,66.844c3.345-1.092,6.085-0.675,8.723,0l-1.538-66.844l3.926,1.331c-0.609-2.997-0.815-5.993,0-8.991
	l-3.926,1.397c0,0,13.839-31.938,14.393-43.845C82.855,149.789,75.454,146.236,67.461,146.236z M77.177,166.075
	c-1.875,8.436-11.783,35.751-11.783,35.751s-8.302-27.985-9.105-36.153s2.812-14.193,10.176-14.193S79.051,157.639,77.177,166.075z"
	/>
<g>
	<path fill="#FFA14A" stroke="#000000" stroke-linecap="round" stroke-linejoin="round" d="M65.259,199.416
		c8.034,0,17.407,1.473,14.863,9.909s-12.051,10.444-14.862,10.176s-12.453-4.418-13.524-11.248S56.287,199.416,65.259,199.416z"/>
	<path fill="#FFA14A" stroke="#000000" stroke-linecap="round" stroke-linejoin="round" d="M54.236,204.87
		c0,0-2.945-2.512-5.024-0.433s-0.606,5.111,1.906,6.324s3.119-0.173,3.032-1.04s-0.953-1.732-0.953-1.732"/>
	<path fill="none" stroke="#000000" stroke-linecap="round" stroke-linejoin="round" d="M56.574,206.603c0,0,1.213-0.867,2.772-0.52
		s3.032,1.56,3.032,1.56s-1.906,1.3-3.378,1.04S56.574,206.603,56.574,206.603z"/>
	<path fill="#FFA14A" stroke="#000000" stroke-linecap="round" stroke-linejoin="round" d="M78.021,204.87
		c0,0,2.945-2.512,5.024-0.433s0.606,5.111-1.906,6.324s-3.119-0.173-3.032-1.04s0.953-1.732,0.953-1.732"/>
	<path fill="none" stroke="#000000" stroke-linecap="round" stroke-linejoin="round" d="M75.509,204.524c0,0-3.725-1.04-5.63-0.087
		s-2.252,4.245-1.819,5.198s1.213,1.646,0.78,2.252s-1.819,0.78-1.819,0.78h-1.783c0,0-1.386-0.173-1.819-0.78
		s0.347-1.299,0.78-2.252s0.086-4.245-1.819-5.198s-5.63,0.087-5.63,0.087"/>
	<path fill="none" stroke="#000000" stroke-linecap="round" stroke-linejoin="round" d="M75.682,206.603c0,0-1.213-0.867-2.772-0.52
		s-3.032,1.56-3.032,1.56s1.906,1.3,3.378,1.04S75.682,206.603,75.682,206.603z"/>
	<path fill="none" stroke="#000000" stroke-linecap="round" stroke-linejoin="round" d="M62.898,214.226
		c0,0,1.125,0.953,2.945,0.953s3.378-0.693,3.378-0.693"/>
	<path fill="none" stroke="#000000" stroke-linecap="round" stroke-linejoin="round" d="M64.457,216.998c0,0,1.993,0.52,2.772-0.173
		"/>
</g>
<g id="g23466" transform="matrix(0.2099968,0,0,0.2099968,954.84449,290.26487)">
	
		<path id="path17950" sodipodi:nodetypes="ccccssc" fill="#FFFFFF" stroke="#000000" stroke-width="1.0694" stroke-linecap="round" stroke-linejoin="round" d="
		M-3208.174-281.456l-162.205-69.197l-213.457-0.612l-193.994,79.505c35.071,138.444,147.147,203.002,281.305,203.147
		c127.071,0.126,185.703-33.745,226.24-78.663C-3231.742-189.972-3214.313-242.472-3208.174-281.456z"/>
	<path id="path20126" sodipodi:nodetypes="cscs" fill="none" stroke="#C13C1B" stroke-width="4" d="M-3291.639-315.771
		c-18.676,82.497-69.695,157.775-208.123,154.639c-116.877-2.655-177.751-76.415-187.219-143.399l-1.437-4.139"/>
	<path id="path22080" sodipodi:nodetypes="cccs" fill="none" stroke="#0044AA" stroke-width="3" stroke-linejoin="round" d="
		M-3273.168-308.693c-24.112,116.799-98.606,171.94-227.724,169.587c-125.179-2.283-192.623-76.868-208.169-154.525l-2.223-5.655"/>
	<path id="path19147" sodipodi:nodetypes="cccc" fill="none" stroke="#308D57" stroke-width="4" d="M-3333.599-334.203
		c-20.545,111.316-80.623,131.891-166.088,130.389c-80.205-1.407-143.403-52.275-145.073-117.959l-1.581-4.406"/>
	<path id="path20138" sodipodi:nodetypes="cssccc" fill="none" stroke="#0044AA" stroke-width="3" d="M-3354.568-343.218
		c-0.391,1.409-5.381,24.017-5.776,25.475c-11.193,40.977-26.633,98.03-139.767,91.866c-76.75-4.181-118.212-49.024-122.007-91.596
		c-0.214-3.146-1.586-10.791-1.837-14.742l-0.916-2.665"/>
	<path id="path20140" sodipodi:nodetypes="cccc" fill="none" stroke="#0044AA" stroke-width="3" d="M-3311.845-326.023
		c-26.386,130.152-115.092,146.572-189.665,143.719c-102.336-3.948-159.135-65.477-164.446-132.303l-1.307-3.165"/>
	<path id="path18173" sodipodi:nodetypes="cssscs" fill="none" stroke="#FAC53A" stroke-width="12" d="M-3234.979-293.78
		c-27.944,123.921-99.62,198.41-259.648,196.094c-0.646-0.009-1.293-0.021-1.939-0.03c-0.023,0-0.042-0.002-0.06-0.002
		c-185.731-3.344-236.345-121.249-252.775-180.157l-1.932-4.467"/>
	<g id="g39880" transform="matrix(-1.0180001,-0.327609,-0.327609,1.0180001,-972.8059,145.98908)">
		<path id="path22816" sodipodi:nodetypes="ccss" fill="none" stroke="#C13C1B" stroke-width="0.5" d="M2371.615,530.407
			c0.157-9.515,7.064-23.982,12.703-33.071c4.539,9.53,10.146,24.756,9.802,33.69C2393.467,548.2,2371.368,546.59,2371.615,530.407z
			"/>
		<path id="path22874" sodipodi:nodetypes="ccss" fill="none" stroke="#C13C1B" stroke-width="0.5" d="M2374.604,530.277
			c0.108-7.048,5.204-17.76,9.367-24.493c3.344,7.054,7.481,18.332,7.226,24.944
			C2390.714,543.454,2374.414,542.264,2374.604,530.277z"/>
		
			<path id="path24814" sodipodi:nodetypes="csc" fill="none" stroke="#C13C1B" stroke-width="0.5" stroke-linecap="round" stroke-linejoin="round" d="
			M2374.677,529.951c1.24-1.058,4.27-3.007,8.274-2.872c3.995,0.134,6.208,1.662,7.936,3.276"/>
		
			<path id="path26759" sodipodi:nodetypes="csc" fill="none" stroke="#C13C1B" stroke-width="0.5" stroke-linecap="round" stroke-linejoin="round" d="
			M2377.928,518.257c1.528-0.972,4.33-1.475,5.599-1.414c1.381,0.067,4.005,1.081,5.116,1.845"/>
	</g>
	<g id="g39886" transform="matrix(-1.0449415,-0.2274853,-0.2274853,1.0449415,-949.1946,61.07457)">
		<g id="g42310">
			<path id="path39888" sodipodi:nodetypes="ccss" fill="none" stroke="#C13C1B" stroke-width="0.5" d="M2389.484,378.232
				c0.145-9.519,7.054-23.98,12.696-33.073c4.534,9.53,10.143,24.754,9.804,33.69
				C2411.329,396.025,2389.228,394.414,2389.484,378.232z"/>
			<path id="path39890" sodipodi:nodetypes="ccss" fill="none" stroke="#C13C1B" stroke-width="0.5" d="M2392.458,378.103
				c0.111-7.052,5.212-17.766,9.37-24.498c3.35,7.056,7.491,18.333,7.23,24.949C2408.575,391.278,2392.271,390.085,2392.458,378.103
				z"/>
			
				<path id="path39892" sodipodi:nodetypes="csc" fill="none" stroke="#C13C1B" stroke-width="0.5" stroke-linecap="round" stroke-linejoin="round" d="
				M2392.543,377.775c1.237-1.059,4.269-3.009,8.271-2.872c3.994,0.135,6.202,1.664,7.93,3.275"/>
			
				<path id="path39894" sodipodi:nodetypes="csc" fill="none" stroke="#C13C1B" stroke-width="0.5" stroke-linecap="round" stroke-linejoin="round" d="
				M2395.788,366.078c1.529-0.971,4.331-1.474,5.598-1.409c1.383,0.065,4.01,1.084,5.121,1.847"/>
		</g>
	</g>
	<g id="g39896" transform="matrix(-0.9804235,-0.4271085,-0.4271085,0.9804235,-1005.7703,229.87114)">
		<path id="path39898" sodipodi:nodetypes="ccss" fill="none" stroke="#C13C1B" stroke-width="0.5" d="M2338.205,683.905
			c0.152-9.517,7.056-23.982,12.699-33.07c4.54,9.526,10.146,24.759,9.808,33.69
			C2360.052,701.696,2337.948,700.086,2338.205,683.905z"/>
		<path id="path39900" sodipodi:nodetypes="ccss" fill="none" stroke="#C13C1B" stroke-width="0.5" d="M2341.18,683.771
			c0.114-7.044,5.212-17.758,9.375-24.492c3.343,7.058,7.483,18.339,7.229,24.954
			C2357.296,696.948,2340.996,695.757,2341.18,683.771z"/>
		
			<path id="path39902" sodipodi:nodetypes="csc" fill="none" stroke="#C13C1B" stroke-width="0.5" stroke-linecap="round" stroke-linejoin="round" d="
			M2341.263,683.449c1.238-1.057,4.269-3.005,8.27-2.869c4,0.137,6.21,1.662,7.938,3.271"/>
		
			<path id="path39904" sodipodi:nodetypes="csc" fill="none" stroke="#C13C1B" stroke-width="0.5" stroke-linecap="round" stroke-linejoin="round" d="
			M2344.51,671.75c1.528-0.971,4.339-1.468,5.603-1.408c1.377,0.062,4.007,1.081,5.116,1.845"/>
	</g>
	<g id="g39906" transform="matrix(-1.0693302,-1.3599586e-2,-1.3599586e-2,1.0693302,-929.0804,-118.60211)">
		<path id="path39908" sodipodi:nodetypes="ccss" fill="none" stroke="#C13C1B" stroke-width="0.5" d="M2379.609,60.882
			c0.156-9.52,7.059-23.981,12.702-33.075c4.541,9.527,10.148,24.757,9.813,33.689C2401.466,78.673,2379.36,77.061,2379.609,60.882z
			"/>
		<path id="path39910" sodipodi:nodetypes="ccss" fill="none" stroke="#C13C1B" stroke-width="0.5" d="M2382.594,60.748
			c0.116-7.048,5.205-17.762,9.37-24.495c3.35,7.055,7.486,18.339,7.232,24.954C2398.709,73.928,2382.411,72.736,2382.594,60.748z"
			/>
		
			<path id="path39912" sodipodi:nodetypes="csc" fill="none" stroke="#C13C1B" stroke-width="0.5" stroke-linecap="round" stroke-linejoin="round" d="
			M2382.672,60.421c1.244-1.054,4.274-3.001,8.273-2.872c3.999,0.136,6.211,1.666,7.934,3.276"/>
		
			<path id="path39914" sodipodi:nodetypes="csc" fill="none" stroke="#C13C1B" stroke-width="0.5" stroke-linecap="round" stroke-linejoin="round" d="
			M2385.922,48.727c1.53-0.972,4.337-1.471,5.602-1.412c1.382,0.065,4.009,1.088,5.117,1.85"/>
	</g>
	<g id="g39916" transform="matrix(-1.0690372,2.8486948e-2,2.8486948e-2,1.0690372,-916.478,-153.50028)">
		<path id="path39918" sodipodi:nodetypes="ccss" fill="none" stroke="#C13C1B" stroke-width="0.5" d="M2366.886-0.799
			c0.151-9.515,7.056-23.985,12.699-33.075c4.534,9.53,10.152,24.76,9.807,33.691C2388.74,16.995,2366.634,15.383,2366.886-0.799z"
			/>
		<path id="path39920" sodipodi:nodetypes="ccss" fill="none" stroke="#C13C1B" stroke-width="0.5" d="M2369.862-0.933
			c0.112-7.048,5.212-17.761,9.374-24.49c3.346,7.056,7.483,18.327,7.229,24.946C2385.982,12.247,2369.677,11.054,2369.862-0.933z"
			/>
		
			<path id="path39922" sodipodi:nodetypes="csc" fill="none" stroke="#C13C1B" stroke-width="0.5" stroke-linecap="round" stroke-linejoin="round" d="
			M2369.945-1.259c1.242-1.058,4.27-3.007,8.276-2.872c3.988,0.135,6.204,1.666,7.939,3.277"/>
		
			<path id="path39924" sodipodi:nodetypes="csc" fill="none" stroke="#C13C1B" stroke-width="0.5" stroke-linecap="round" stroke-linejoin="round" d="
			M2373.2-12.952c1.522-0.976,4.324-1.475,5.6-1.415c1.376,0.068,4.005,1.083,5.113,1.847"/>
	</g>
	<g id="g39926" transform="matrix(-1.0693302,-1.3599586e-2,-1.3599586e-2,1.0693302,-951.7357,-119.08122)">
		<g id="g42304" transform="matrix(0.9937166,-0.111926,0.111926,0.9937166,-18.340982,94.096785)">
			<path id="path39928" sodipodi:nodetypes="ccss" fill="none" stroke="#C13C1B" stroke-width="0.5" d="M2392.411,237.002
				c0.152-9.518,7.06-23.981,12.702-33.072c4.541,9.524,10.15,24.754,9.8,33.688
				C2414.265,254.793,2392.159,253.181,2392.411,237.002z"/>
			<path id="path39930" sodipodi:nodetypes="ccss" fill="none" stroke="#C13C1B" stroke-width="0.5" d="M2395.394,236.872
				c0.11-7.053,5.202-17.765,9.369-24.497c3.348,7.053,7.485,18.332,7.237,24.954
				C2411.508,250.044,2395.205,248.854,2395.394,236.872z"/>
			
				<path id="path39932" sodipodi:nodetypes="csc" fill="none" stroke="#C13C1B" stroke-width="0.5" stroke-linecap="round" stroke-linejoin="round" d="
				M2395.467,236.541c1.246-1.055,4.278-3.008,8.275-2.868c4.002,0.136,6.216,1.663,7.938,3.271"/>
			
				<path id="path39934" sodipodi:nodetypes="csc" fill="none" stroke="#C13C1B" stroke-width="0.5" stroke-linecap="round" stroke-linejoin="round" d="
				M2398.722,224.85c1.529-0.976,4.331-1.477,5.603-1.413c1.381,0.064,4.005,1.086,5.111,1.847"/>
		</g>
	</g>
	<g id="g40118" transform="matrix(-0.5994619,0.8856056,0.8856056,0.5994619,-1335.2251,-846.33058)">
		<path id="path40120" sodipodi:nodetypes="ccss" fill="none" stroke="#C13C1B" stroke-width="0.5" d="M1509.565-1148.807
			c0.15-9.519,7.056-23.984,12.698-33.072c4.538,9.525,10.154,24.753,9.811,33.684
			C1531.414-1131.014,1509.318-1132.628,1509.565-1148.807z"/>
		<path id="path40122" sodipodi:nodetypes="ccss" fill="none" stroke="#C13C1B" stroke-width="0.5" d="M1512.543-1148.94
			c0.117-7.046,5.208-17.763,9.371-24.496c3.345,7.059,7.483,18.335,7.234,24.951
			C1528.663-1135.759,1512.363-1136.952,1512.543-1148.94z"/>
		
			<path id="path40124" sodipodi:nodetypes="csc" fill="none" stroke="#C13C1B" stroke-width="0.5" stroke-linecap="round" stroke-linejoin="round" d="
			M1512.625-1149.267c1.24-1.056,4.274-3.009,8.269-2.872c4,0.134,6.21,1.662,7.939,3.274"/>
		
			<path id="path40126" sodipodi:nodetypes="csc" fill="none" stroke="#C13C1B" stroke-width="0.5" stroke-linecap="round" stroke-linejoin="round" d="
			M1515.875-1160.961c1.531-0.975,4.333-1.478,5.603-1.411c1.38,0.063,4.007,1.085,5.118,1.842"/>
	</g>
	<g id="g40128" transform="matrix(-0.5096893,0.940143,0.940143,0.5096893,-1409.0833,-893.94373)">
		<path id="path40130" sodipodi:nodetypes="ccss" fill="none" stroke="#C13C1B" stroke-width="0.5" d="M1366.529-1209.983
			c0.154-9.517,7.059-23.982,12.703-33.075c4.535,9.532,10.15,24.759,9.805,33.688
			C1388.38-1192.196,1366.282-1193.803,1366.529-1209.983z"/>
		<path id="path40132" sodipodi:nodetypes="ccss" fill="none" stroke="#C13C1B" stroke-width="0.5" d="M1369.51-1210.118
			c0.113-7.047,5.21-17.762,9.371-24.494c3.343,7.055,7.485,18.333,7.228,24.956
			C1385.63-1196.937,1369.325-1198.134,1369.51-1210.118z"/>
		
			<path id="path40134" sodipodi:nodetypes="csc" fill="none" stroke="#C13C1B" stroke-width="0.5" stroke-linecap="round" stroke-linejoin="round" d="
			M1369.585-1210.443c1.251-1.058,4.277-3.004,8.273-2.87c4.002,0.132,6.214,1.658,7.943,3.272"/>
		
			<path id="path40136" sodipodi:nodetypes="csc" fill="none" stroke="#C13C1B" stroke-width="0.5" stroke-linecap="round" stroke-linejoin="round" d="
			M1372.843-1222.136c1.523-0.975,4.326-1.474,5.604-1.414c1.375,0.068,4.004,1.082,5.113,1.847"/>
	</g>
	<g id="g40138" transform="matrix(-0.7239834,0.7870831,0.7870831,0.7239834,-1224.4711,-771.77841)">
		<path id="path40140" sodipodi:nodetypes="ccss" fill="none" stroke="#C13C1B" stroke-width="0.5" d="M1709.232-1031.155
			c0.155-9.518,7.059-23.983,12.7-33.068c4.54,9.523,10.146,24.754,9.811,33.686
			C1731.085-1013.357,1708.983-1014.97,1709.232-1031.155z"/>
		<path id="path40142" sodipodi:nodetypes="ccss" fill="none" stroke="#C13C1B" stroke-width="0.5" d="M1712.212-1031.279
			c0.112-7.052,5.208-17.767,9.374-24.499c3.346,7.054,7.479,18.336,7.231,24.949
			C1728.334-1018.11,1712.03-1019.299,1712.212-1031.279z"/>
		
			<path id="path40144" sodipodi:nodetypes="csc" fill="none" stroke="#C13C1B" stroke-width="0.5" stroke-linecap="round" stroke-linejoin="round" d="
			M1712.286-1031.607c1.248-1.055,4.283-3.015,8.277-2.874c3.999,0.133,6.208,1.663,7.938,3.272"/>
		
			<path id="path40146" sodipodi:nodetypes="csc" fill="none" stroke="#C13C1B" stroke-width="0.5" stroke-linecap="round" stroke-linejoin="round" d="
			M1715.544-1043.304c1.526-0.972,4.33-1.47,5.605-1.414c1.378,0.063,4.002,1.087,5.112,1.849"/>
	</g>
	<g id="g40148" transform="matrix(-0.2934886,1.0283562,1.0283562,0.2934886,-1592.4875,-963.83508)">
		<path id="path40150" sodipodi:nodetypes="ccss" fill="none" stroke="#C13C1B" stroke-width="0.5" d="M1033.639-1294.205
			c0.155-9.52,7.055-23.984,12.703-33.072c4.537,9.525,10.149,24.752,9.805,33.684
			C1055.493-1276.414,1033.393-1278.022,1033.639-1294.205z"/>
		<path id="path40152" sodipodi:nodetypes="ccss" fill="none" stroke="#C13C1B" stroke-width="0.5" d="M1036.622-1294.335
			c0.114-7.054,5.206-17.765,9.371-24.499c3.349,7.052,7.483,18.338,7.233,24.955
			C1052.741-1281.16,1036.438-1282.354,1036.622-1294.335z"/>
		
			<path id="path40154" sodipodi:nodetypes="csc" fill="none" stroke="#C13C1B" stroke-width="0.5" stroke-linecap="round" stroke-linejoin="round" d="
			M1036.698-1294.666c1.244-1.056,4.274-3.004,8.272-2.871c4.002,0.134,6.217,1.666,7.939,3.279"/>
		
			<path id="path40156" sodipodi:nodetypes="csc" fill="none" stroke="#C13C1B" stroke-width="0.5" stroke-linecap="round" stroke-linejoin="round" d="
			M1039.955-1306.362c1.525-0.971,4.325-1.465,5.602-1.408c1.374,0.067,4.001,1.083,5.115,1.844"/>
	</g>
	<g id="g40168" transform="matrix(-0.3900967,0.9957292,0.9957292,0.3900967,-1512.0771,-936.38318)">
		<path id="path40170" sodipodi:nodetypes="ccss" fill="none" stroke="#C13C1B" stroke-width="0.5" d="M1181.619-1266.523
			c0.153-9.523,7.055-23.987,12.698-33.074c4.539,9.526,10.15,24.75,9.809,33.686
			C1203.475-1248.732,1181.371-1250.344,1181.619-1266.523z"/>
		<path id="path40172" sodipodi:nodetypes="ccss" fill="none" stroke="#C13C1B" stroke-width="0.5" d="M1184.599-1266.654
			c0.116-7.049,5.207-17.762,9.372-24.5c3.346,7.065,7.486,18.335,7.236,24.953
			C1200.716-1253.475,1184.417-1254.667,1184.599-1266.654z"/>
		
			<path id="path40174" sodipodi:nodetypes="csc" fill="none" stroke="#C13C1B" stroke-width="0.5" stroke-linecap="round" stroke-linejoin="round" d="
			M1184.681-1266.982c1.24-1.055,4.277-3.009,8.277-2.875c3.992,0.14,6.206,1.665,7.932,3.28"/>
		
			<path id="path40176" sodipodi:nodetypes="csc" fill="none" stroke="#C13C1B" stroke-width="0.5" stroke-linecap="round" stroke-linejoin="round" d="
			M1187.932-1278.678c1.529-0.97,4.334-1.473,5.603-1.41c1.376,0.063,4.005,1.083,5.117,1.846"/>
	</g>
	<g id="g40178" transform="matrix(-0.9181711,0.5482826,0.5482826,0.9181711,-1047.1311,-583.07347)">
		<path id="path40180" sodipodi:nodetypes="ccss" fill="none" stroke="#C13C1B" stroke-width="0.5" d="M2037.879-724.368
			c0.145-9.52,7.053-23.982,12.701-33.073c4.535,9.529,10.148,24.755,9.804,33.687
			C2059.727-706.576,2037.627-708.191,2037.879-724.368z"/>
		<path id="path40182" sodipodi:nodetypes="ccss" fill="none" stroke="#C13C1B" stroke-width="0.5" d="M2040.859-724.5
			c0.105-7.05,5.205-17.763,9.367-24.492c3.348,7.049,7.483,18.333,7.232,24.943C2056.974-711.323,2040.668-712.514,2040.859-724.5z
			"/>
		
			<path id="path40184" sodipodi:nodetypes="csc" fill="none" stroke="#C13C1B" stroke-width="0.5" stroke-linecap="round" stroke-linejoin="round" d="
			M2040.937-724.827c1.244-1.055,4.276-3.009,8.271-2.875c3.998,0.14,6.208,1.669,7.937,3.275"/>
		
			<path id="path40186" sodipodi:nodetypes="csc" fill="none" stroke="#C13C1B" stroke-width="0.5" stroke-linecap="round" stroke-linejoin="round" d="
			M2044.185-736.522c1.531-0.973,4.328-1.47,5.606-1.41c1.379,0.063,4.002,1.079,5.115,1.841"/>
	</g>
	<g id="g40188" transform="matrix(-0.8168597,0.6902117,0.6902117,0.8168597,-1143.8027,-693.40025)">
		<path id="path40190" sodipodi:nodetypes="ccss" fill="none" stroke="#C13C1B" stroke-width="0.5" d="M1864.01-909.34
			c0.149-9.519,7.059-23.986,12.695-33.075c4.54,9.531,10.154,24.758,9.814,33.694
			C1885.864-891.548,1863.758-893.158,1864.01-909.34z"/>
		<path id="path40192" sodipodi:nodetypes="ccss" fill="none" stroke="#C13C1B" stroke-width="0.5" d="M1866.986-909.47
			c0.116-7.052,5.208-17.762,9.37-24.492c3.352,7.053,7.49,18.331,7.236,24.943C1883.106-896.294,1866.806-897.488,1866.986-909.47z
			"/>
		
			<path id="path40194" sodipodi:nodetypes="csc" fill="none" stroke="#C13C1B" stroke-width="0.5" stroke-linecap="round" stroke-linejoin="round" d="
			M1867.068-909.804c1.247-1.051,4.273-3.001,8.27-2.866c4.004,0.13,6.213,1.659,7.941,3.273"/>
		
			<path id="path40196" sodipodi:nodetypes="csc" fill="none" stroke="#C13C1B" stroke-width="0.5" stroke-linecap="round" stroke-linejoin="round" d="
			M1870.32-921.492c1.526-0.976,4.334-1.473,5.6-1.41c1.38,0.064,4.007,1.077,5.12,1.842"/>
	</g>
	<g id="g40198" transform="matrix(-0.972147,0.4456254,0.4456254,0.972147,-1000.3924,-497.89385)">
		<path id="path40200" sodipodi:nodetypes="ccss" fill="none" stroke="#C13C1B" stroke-width="0.5" d="M2137.821-586.361
			c0.152-9.52,7.054-23.985,12.701-33.069c4.534,9.526,10.143,24.758,9.802,33.687
			C2159.672-568.568,2137.566-570.177,2137.821-586.361z"/>
		<path id="path40202" sodipodi:nodetypes="ccss" fill="none" stroke="#C13C1B" stroke-width="0.5" d="M2140.8-586.488
			c0.112-7.05,5.206-17.768,9.37-24.496c3.351,7.05,7.485,18.332,7.235,24.945C2156.916-573.318,2140.609-574.506,2140.8-586.488z"
			/>
		
			<path id="path40204" sodipodi:nodetypes="csc" fill="none" stroke="#C13C1B" stroke-width="0.5" stroke-linecap="round" stroke-linejoin="round" d="
			M2140.876-586.822c1.246-1.049,4.278-3.002,8.275-2.87c3.997,0.141,6.21,1.662,7.937,3.279"/>
		
			<path id="path40206" sodipodi:nodetypes="csc" fill="none" stroke="#C13C1B" stroke-width="0.5" stroke-linecap="round" stroke-linejoin="round" d="
			M2144.131-598.517c1.523-0.966,4.332-1.466,5.602-1.408c1.379,0.066,4.008,1.083,5.114,1.848"/>
	</g>
	<g id="g40208" transform="matrix(-1.0487628,0.2091613,0.2091613,1.0487628,-928.5353,-304.32116)">
		<path id="path40210" sodipodi:nodetypes="ccss" fill="none" stroke="#C13C1B" stroke-width="0.5" d="M2297.519-259.326
			c0.154-9.52,7.056-23.984,12.697-33.075c4.543,9.53,10.153,24.76,9.81,33.692C2319.367-241.533,2297.273-243.146,2297.519-259.326
			z"/>
		<path id="path40212" sodipodi:nodetypes="ccss" fill="none" stroke="#C13C1B" stroke-width="0.5" d="M2300.499-259.457
			c0.115-7.049,5.206-17.762,9.371-24.494c3.349,7.052,7.488,18.336,7.233,24.952
			C2316.615-246.283,2300.309-247.469,2300.499-259.457z"/>
		
			<path id="path40214" sodipodi:nodetypes="csc" fill="none" stroke="#C13C1B" stroke-width="0.5" stroke-linecap="round" stroke-linejoin="round" d="
			M2300.58-259.786c1.249-1.054,4.274-3.003,8.27-2.869c3.996,0.137,6.211,1.663,7.943,3.274"/>
		
			<path id="path40216" sodipodi:nodetypes="csc" fill="none" stroke="#C13C1B" stroke-width="0.5" stroke-linecap="round" stroke-linejoin="round" d="
			M2303.83-271.48c1.531-0.973,4.332-1.469,5.599-1.409c1.383,0.066,4.011,1.082,5.122,1.845"/>
	</g>
	<g id="g40218" transform="matrix(-1.0232775,0.3107329,0.3107329,1.0232775,-950.1267,-388.759)">
		<path id="path40220" sodipodi:nodetypes="ccss" fill="none" stroke="#C13C1B" stroke-width="0.5" d="M2238.843-401.485
			c0.152-9.512,7.051-23.982,12.695-33.07c4.539,9.529,10.154,24.757,9.811,33.686C2260.689-383.69,2238.595-385.3,2238.843-401.485
			z"/>
		<path id="path40222" sodipodi:nodetypes="ccss" fill="none" stroke="#C13C1B" stroke-width="0.5" d="M2241.826-401.614
			c0.109-7.05,5.2-17.762,9.368-24.493c3.347,7.055,7.48,18.331,7.231,24.951C2257.944-388.435,2241.639-389.63,2241.826-401.614z"
			/>
		
			<path id="path40224" sodipodi:nodetypes="csc" fill="none" stroke="#C13C1B" stroke-width="0.5" stroke-linecap="round" stroke-linejoin="round" d="
			M2241.9-401.941c1.243-1.055,4.272-3.006,8.272-2.869c3.998,0.131,6.212,1.661,7.938,3.273"/>
		
			<path id="path40226" sodipodi:nodetypes="csc" fill="none" stroke="#C13C1B" stroke-width="0.5" stroke-linecap="round" stroke-linejoin="round" d="
			M2245.152-413.635c1.532-0.972,4.334-1.473,5.602-1.41c1.378,0.063,4.002,1.087,5.114,1.844"/>
	</g>
	<g id="g40228" transform="matrix(-1.0650472,9.6571143e-2,9.6571143e-2,1.0650472,-912.2991,-210.89034)">
		<path id="path40230" sodipodi:nodetypes="ccss" fill="none" stroke="#C13C1B" stroke-width="0.5" d="M2344.593-99.292
			c0.15-9.519,7.056-23.982,12.698-33.074c4.536,9.531,10.148,24.76,9.809,33.688C2366.444-81.498,2344.344-83.112,2344.593-99.292z
			"/>
		<path id="path40232" sodipodi:nodetypes="ccss" fill="none" stroke="#C13C1B" stroke-width="0.5" d="M2347.568-99.422
			c0.12-7.049,5.209-17.765,9.375-24.498c3.343,7.059,7.488,18.337,7.232,24.953C2363.691-86.25,2347.388-87.438,2347.568-99.422z"
			/>
		
			<path id="path40234" sodipodi:nodetypes="csc" fill="none" stroke="#C13C1B" stroke-width="0.5" stroke-linecap="round" stroke-linejoin="round" d="
			M2347.651-99.753c1.236-1.055,4.277-3.005,8.276-2.872c3.99,0.136,6.208,1.668,7.934,3.276"/>
		
			<path id="path40236" sodipodi:nodetypes="csc" fill="none" stroke="#C13C1B" stroke-width="0.5" stroke-linecap="round" stroke-linejoin="round" d="
			M2350.901-111.444c1.531-0.977,4.333-1.476,5.609-1.415c1.373,0.068,4.002,1.087,5.11,1.846"/>
	</g>
	<g id="g40238" transform="matrix(-0.8680725,-0.6245817,-0.6245817,0.8680725,-1098.8861,398.61415)">
		<path id="path40240" sodipodi:nodetypes="ccss" fill="none" stroke="#C13C1B" stroke-width="0.5" d="M2215.396,996.417
			c0.155-9.515,7.055-23.981,12.695-33.072c4.544,9.529,10.151,24.757,9.813,33.693
			C2237.246,1014.215,2215.146,1012.601,2215.396,996.417z"/>
		<path id="path40242" sodipodi:nodetypes="ccss" fill="none" stroke="#C13C1B" stroke-width="0.5" d="M2218.377,996.294
			c0.113-7.052,5.203-17.768,9.372-24.499c3.344,7.056,7.48,18.336,7.229,24.947
			C2234.496,1009.466,2218.188,1008.276,2218.377,996.294z"/>
		
			<path id="path40244" sodipodi:nodetypes="csc" fill="none" stroke="#C13C1B" stroke-width="0.5" stroke-linecap="round" stroke-linejoin="round" d="
			M2218.455,995.962c1.242-1.056,4.277-3.003,8.273-2.868c3.997,0.133,6.209,1.66,7.935,3.274"/>
		
			<path id="path40246" sodipodi:nodetypes="csc" fill="none" stroke="#C13C1B" stroke-width="0.5" stroke-linecap="round" stroke-linejoin="round" d="
			M2221.705,984.267c1.534-0.97,4.333-1.473,5.605-1.41c1.376,0.061,4.003,1.078,5.109,1.841"/>
	</g>
	<g id="g40248" transform="matrix(-0.9188819,-0.5470908,-0.5470908,0.9188819,-1053.2841,334.2634)">
		<path id="path40250" sodipodi:nodetypes="ccss" fill="none" stroke="#C13C1B" stroke-width="0.5" d="M2272.418,872.2
			c0.158-9.514,7.06-23.978,12.705-33.069c4.535,9.527,10.148,24.76,9.804,33.685C2294.275,889.994,2272.171,888.384,2272.418,872.2
			z"/>
		<path id="path40252" sodipodi:nodetypes="ccss" fill="none" stroke="#C13C1B" stroke-width="0.5" d="M2275.397,872.068
			c0.121-7.046,5.209-17.759,9.374-24.491c3.348,7.059,7.486,18.334,7.231,24.949
			C2291.518,885.249,2275.212,884.059,2275.397,872.068z"/>
		
			<path id="path40254" sodipodi:nodetypes="csc" fill="none" stroke="#C13C1B" stroke-width="0.5" stroke-linecap="round" stroke-linejoin="round" d="
			M2275.478,871.745c1.246-1.055,4.275-3.007,8.274-2.872c4.003,0.136,6.212,1.662,7.941,3.281"/>
		
			<path id="path40256" sodipodi:nodetypes="csc" fill="none" stroke="#C13C1B" stroke-width="0.5" stroke-linecap="round" stroke-linejoin="round" d="
			M2278.735,860.052c1.525-0.972,4.329-1.474,5.598-1.412c1.38,0.062,4.007,1.082,5.118,1.843"/>
	</g>
	<g id="g40258" transform="matrix(-0.3622296,-1.0062017,-1.0062017,0.3622296,-1449.4391,809.95736)">
		<g id="g43287" transform="matrix(0.9001832,0.4355114,-0.4355114,0.9001832,177.88986,-334.06541)">
			<path id="path40260" sodipodi:nodetypes="ccss" fill="none" stroke="#C13C1B" stroke-width="0.5" d="M2087.167,1198.04
				c0.159-9.519,7.061-23.981,12.701-33.076c4.541,9.528,10.153,24.759,9.811,33.688
				C2109.025,1215.831,2086.92,1214.221,2087.167,1198.04z"/>
			<path id="path40262" sodipodi:nodetypes="ccss" fill="none" stroke="#C13C1B" stroke-width="0.5" d="M2090.15,1197.908
				c0.115-7.049,5.208-17.762,9.369-24.494c3.354,7.055,7.488,18.336,7.235,24.948
				C2106.271,1211.085,2089.967,1209.895,2090.15,1197.908z"/>
			
				<path id="path40264" sodipodi:nodetypes="csc" fill="none" stroke="#C13C1B" stroke-width="0.5" stroke-linecap="round" stroke-linejoin="round" d="
				M2090.231,1197.583c1.24-1.056,4.276-3.007,8.269-2.872c4.002,0.132,6.216,1.663,7.94,3.277"/>
			
				<path id="path40266" sodipodi:nodetypes="csc" fill="none" stroke="#C13C1B" stroke-width="0.5" stroke-linecap="round" stroke-linejoin="round" d="
				M2093.482,1185.888c1.525-0.974,4.332-1.473,5.604-1.412c1.372,0.065,4.005,1.087,5.114,1.844"/>
		</g>
	</g>
	<g id="g40298" transform="matrix(-0.5312358,-0.9281383,-0.9281383,0.5312358,-1365.2141,676.17285)">
		<path id="path40300" sodipodi:nodetypes="ccss" fill="none" stroke="#C13C1B" stroke-width="0.5" d="M1781.048,1508.969
			c0.154-9.523,7.055-23.985,12.699-33.072c4.539,9.527,10.145,24.754,9.806,33.686
			C1802.901,1526.759,1780.798,1525.146,1781.048,1508.969z"/>
		<path id="path40302" sodipodi:nodetypes="ccss" fill="none" stroke="#C13C1B" stroke-width="0.5" d="M1784.031,1508.835
			c0.108-7.051,5.206-17.766,9.368-24.497c3.346,7.054,7.484,18.336,7.235,24.952
			C1800.146,1522.013,1783.841,1520.821,1784.031,1508.835z"/>
		
			<path id="path40304" sodipodi:nodetypes="csc" fill="none" stroke="#C13C1B" stroke-width="0.5" stroke-linecap="round" stroke-linejoin="round" d="
			M1784.108,1508.505c1.244-1.053,4.276-3.004,8.272-2.871c3.996,0.135,6.21,1.667,7.939,3.275"/>
		
			<path id="path40306" sodipodi:nodetypes="csc" fill="none" stroke="#C13C1B" stroke-width="0.5" stroke-linecap="round" stroke-linejoin="round" d="
			M1787.357,1496.815c1.528-0.98,4.331-1.472,5.606-1.41c1.379,0.063,4.001,1.077,5.117,1.841"/>
	</g>
	<g id="g40308" transform="matrix(-0.6611587,-0.8405483,-0.8405483,0.6611587,-1260.9157,593.44872)">
		<path id="path40310" sodipodi:nodetypes="ccss" fill="none" stroke="#C13C1B" stroke-width="0.5" d="M1954.61,1354.552
			c0.152-9.514,7.055-23.984,12.694-33.072c4.54,9.524,10.148,24.754,9.81,33.689
			C1976.457,1372.347,1954.356,1370.735,1954.61,1354.552z"/>
		<path id="path40312" sodipodi:nodetypes="ccss" fill="none" stroke="#C13C1B" stroke-width="0.5" d="M1957.59,1354.427
			c0.11-7.052,5.202-17.768,9.371-24.5c3.348,7.059,7.481,18.331,7.232,24.956
			C1973.707,1367.603,1957.402,1366.409,1957.59,1354.427z"/>
		
			<path id="path40314" sodipodi:nodetypes="csc" fill="none" stroke="#C13C1B" stroke-width="0.5" stroke-linecap="round" stroke-linejoin="round" d="
			M1957.664,1354.092c1.248-1.048,4.281-3.002,8.276-2.864c3.998,0.131,6.209,1.655,7.939,3.271"/>
		
			<path id="path40316" sodipodi:nodetypes="csc" fill="none" stroke="#C13C1B" stroke-width="0.5" stroke-linecap="round" stroke-linejoin="round" d="
			M1960.922,1342.401c1.527-0.974,4.327-1.473,5.601-1.407c1.378,0.061,4.002,1.079,5.114,1.842"/>
	</g>
	<g id="g40318" transform="matrix(-0.4902558,-0.9504217,-0.9504217,0.4902558,-1406.4129,684.65778)">
		<path id="path40320" sodipodi:nodetypes="ccss" fill="none" stroke="#C13C1B" stroke-width="0.5" d="M1729.136,1550.707
			c0.154-9.515,7.055-23.981,12.697-33.072c4.541,9.533,10.15,24.756,9.808,33.693
			C1750.989,1568.499,1728.886,1566.889,1729.136,1550.707z"/>
		<path id="path40322" sodipodi:nodetypes="ccss" fill="none" stroke="#C13C1B" stroke-width="0.5" d="M1732.117,1550.581
			c0.111-7.047,5.211-17.766,9.373-24.495c3.344,7.053,7.482,18.332,7.23,24.948
			C1748.231,1563.756,1731.927,1562.564,1732.117,1550.581z"/>
		
			<path id="path40324" sodipodi:nodetypes="csc" fill="none" stroke="#C13C1B" stroke-width="0.5" stroke-linecap="round" stroke-linejoin="round" d="
			M1732.192,1550.248c1.247-1.049,4.274-3.002,8.276-2.87c4,0.138,6.208,1.663,7.936,3.277"/>
		
			<path id="path40326" sodipodi:nodetypes="csc" fill="none" stroke="#C13C1B" stroke-width="0.5" stroke-linecap="round" stroke-linejoin="round" d="
			M1735.448,1538.556c1.528-0.974,4.328-1.474,5.601-1.411c1.379,0.064,4.006,1.084,5.119,1.846"/>
	</g>
	<g id="g40328" transform="matrix(-0.3161442,-1.0216188,-1.0216188,0.3161442,-1553.1848,739.08458)">
		<path id="path40330" sodipodi:nodetypes="ccss" fill="none" stroke="#C13C1B" stroke-width="0.5" d="M1491.808,1690.822
			c0.147-9.52,7.057-23.986,12.693-33.074c4.544,9.528,10.153,24.755,9.811,33.689
			C1513.657,1708.613,1491.555,1707.002,1491.808,1690.822z"/>
		<path id="path40332" sodipodi:nodetypes="ccss" fill="none" stroke="#C13C1B" stroke-width="0.5" d="M1494.784,1690.688
			c0.115-7.048,5.205-17.763,9.367-24.493c3.354,7.058,7.489,18.337,7.232,24.953
			C1510.902,1703.865,1494.597,1702.674,1494.784,1690.688z"/>
		
			<path id="path40334" sodipodi:nodetypes="csc" fill="none" stroke="#C13C1B" stroke-width="0.5" stroke-linecap="round" stroke-linejoin="round" d="
			M1494.864,1690.363c1.242-1.053,4.277-3.008,8.271-2.874c3.998,0.135,6.212,1.665,7.94,3.276"/>
		
			<path id="path40336" sodipodi:nodetypes="csc" fill="none" stroke="#C13C1B" stroke-width="0.5" stroke-linecap="round" stroke-linejoin="round" d="
			M1498.115,1678.667c1.53-0.969,4.333-1.471,5.604-1.409c1.373,0.062,4.004,1.083,5.115,1.842"/>
	</g>
	<g id="g40338" transform="matrix(-0.396788,-0.9930818,-0.9930818,0.396788,-1485.1183,719.08363)">
		<path id="path40340" sodipodi:nodetypes="ccss" fill="none" stroke="#C13C1B" stroke-width="0.5" d="M1602.276,1632.392
			c0.152-9.518,7.052-23.979,12.698-33.072c4.537,9.533,10.15,24.758,9.809,33.691
			C1624.126,1650.19,1602.021,1648.579,1602.276,1632.392z"/>
		<path id="path40342" sodipodi:nodetypes="ccss" fill="none" stroke="#C13C1B" stroke-width="0.5" d="M1605.255,1632.267
			c0.113-7.048,5.208-17.766,9.37-24.495c3.347,7.052,7.482,18.333,7.232,24.95
			C1621.375,1645.442,1605.067,1644.253,1605.255,1632.267z"/>
		
			<path id="path40344" sodipodi:nodetypes="csc" fill="none" stroke="#C13C1B" stroke-width="0.5" stroke-linecap="round" stroke-linejoin="round" d="
			M1605.333,1631.938c1.241-1.055,4.274-3.005,8.274-2.873c3.996,0.138,6.209,1.663,7.936,3.277"/>
		
			<path id="path40346" sodipodi:nodetypes="csc" fill="none" stroke="#C13C1B" stroke-width="0.5" stroke-linecap="round" stroke-linejoin="round" d="
			M1608.587,1620.24c1.527-0.973,4.33-1.468,5.602-1.409c1.377,0.065,4.003,1.082,5.116,1.847"/>
	</g>
	
		<path id="path5453" sodipodi:nodetypes="ccccssc" fill="none" stroke="#000000" stroke-width="1.0694" stroke-linecap="round" stroke-linejoin="round" d="
		M-3208.175-281.456l-161.968-69.214l-213.694-0.595l-193.995,79.505c35.071,138.444,147.147,203.002,281.305,203.147
		c127.071,0.126,185.703-33.745,226.24-78.663C-3231.743-189.972-3214.313-242.472-3208.175-281.456z"/>
</g>
<g>
	<path id="path32597" fill="#E9DDAF" stroke="#E9DDAF" d="M209.163,158.258l2.004-41.924l13,9.667l-2.175,34.657L209.163,158.258z"
		/>
	<path fill="#494544" d="M244.866,197.383c3.782-7.363,7.929-27.753-1.483-43.67c-7.643-12.925-11.882-14.607-13.883-14.962
		c-1.438-7.813-5.507-19.081-18.236-29.365c-5.098,1.568-1.196,19.791-9.356,31.377c-8.311,6.169-22.812,3.993-27.618,14.908
		c-5.359,4.81-12.925,10.406-16.628,18.898c-3.428,1.464-2.759,7.274,3.366,5.711c3.381,6.643,5.458,8.789,8.086,9.538
		c0.134,1.238,0.586,1.642,1.145,1.682c2.492,10.066,20.407,3.873,31.241,8.832c2,7.013-5.025,15.913-3.624,19.502
		c0,0,2.159,17.144,24.5,18.375c11.5,0,21.936-6.39,25-21.25C247.375,216.959,240.102,206.657,244.866,197.383z M219.592,158.435
		l-0.46-0.281c2.081-1.03-7.63-5.959-6.868-7.941c7.317-2.958-0.764-31.821,0.245-31.421
		C220.801,125.548,225.299,154.447,219.592,158.435z"/>
	<path fill="none" stroke="#000000" stroke-width="0.5" d="M219.592,158.435l-0.46-0.281c2.081-1.03-7.63-5.959-6.868-7.941
		c7.317-2.958-0.764-31.821,0.245-31.421C220.801,125.548,225.299,154.447,219.592,158.435z"/>
	<g id="g18935" transform="translate(103.32818,-1.3671875)">
		
			<path id="path3140" sodipodi:nodetypes="ccccc" fill="#E9DDAF" stroke="#E9DDAF" stroke-width="0.101" stroke-linecap="round" stroke-linejoin="round" d="
			M73.837,197.855c-1.887-1.891-2.975-3.253-4.094-6.487c-1.062,0.203-2.186,0.179-3.533,0c-0.112,0.532,0.685,1,1.046,1.154
			C70.267,198.074,71.147,196.883,73.837,197.855z"/>
		<path id="path3142" sodipodi:nodetypes="cccccc" fill="#E9DDAF" stroke="#E9DDAF" stroke-width="0.101" d="M58.565,181.631
			l-0.577-0.793c-9.277,0.884-1.595-7.472,1.082-0.722c2.568,3.965,4.994,8.128,10.458,8.078c0.598,0.775,2.229,1.655,0.145,2.163
			C63.222,191.81,60.657,187.096,58.565,181.631z"/>
		
			<path id="path3144" sodipodi:nodetypes="cc" fill="none" stroke="#000000" stroke-width="0.7" stroke-linecap="round" stroke-linejoin="round" d="
			M87.825,190.879c1.16,0.693,2.09,2.532,0.324,4.111"/>
		
			<path id="path3146" sodipodi:nodetypes="cc" fill="none" stroke="#000000" stroke-width="0.7" stroke-linecap="round" stroke-linejoin="round" d="
			M89.916,191.024c0.854,1.461,1.221,2.964-0.216,4.615"/>
		
			<path id="path23986" sodipodi:nodetypes="ccc" fill="none" stroke="#C13C1B" stroke-width="0.5" stroke-linecap="round" stroke-linejoin="round" d="
			M54.346,178.07c1.193-0.963,4.265-0.644,4.868,2.443c2.496,2.09,3.371,7.804,10.386,7.682"/>
		<path id="path24959" fill="none" stroke="#C13C1B" stroke-width="0.5" stroke-linecap="round" stroke-linejoin="round" d="
			M60.26,181.919l-1.227,0.83"/>
		
			<path id="path24961" sodipodi:nodetypes="cc" fill="none" stroke="#C13C1B" stroke-width="0.5" stroke-linecap="round" stroke-linejoin="round" d="
			M60.975,182.769l-1.473,1.063"/>
		<path id="path24963" fill="none" stroke="#C13C1B" stroke-width="0.5" stroke-linecap="round" stroke-linejoin="round" d="
			M61.522,183.795l-1.515,1.117"/>
		<path id="path24965" fill="none" stroke="#C13C1B" stroke-width="0.5" stroke-linecap="round" stroke-linejoin="round" d="
			M62.244,184.733l-1.659,1.298"/>
		<path id="path24967" fill="none" stroke="#C13C1B" stroke-width="0.5" stroke-linecap="round" stroke-linejoin="round" d="
			M62.964,185.634l-1.622,1.551"/>
		<path id="path24969" fill="none" stroke="#C13C1B" stroke-width="0.5" stroke-linecap="round" stroke-linejoin="round" d="
			M63.974,186.644l-1.515,1.767"/>
		<path id="path24971" fill="none" stroke="#C13C1B" stroke-width="0.5" stroke-linecap="round" stroke-linejoin="round" d="
			M65.128,187.401l-1.118,2.2"/>
		
			<path id="path25942" sodipodi:nodetypes="cc" fill="none" stroke="#C13C1B" stroke-width="0.5" stroke-linecap="round" stroke-linejoin="round" d="
			M66.862,188.064l-0.633,2.327"/>
		
			<path id="path26913" sodipodi:nodetypes="csssc" fill="#FFFFFF" stroke="#C13C1B" stroke-width="0.5" stroke-linecap="round" stroke-linejoin="round" d="
			M68.41,192.197c0,0.199-0.161,0.361-0.36,0.361s-0.505-0.198-0.505-0.397c0-0.198,0.306-0.324,0.505-0.324
			S68.41,191.998,68.41,192.197z"/>
		
			<path id="path27884" sodipodi:nodetypes="csssc" fill="#FFFFFF" stroke="#C13C1B" stroke-width="0.5" stroke-linecap="round" stroke-linejoin="round" d="
			M70.033,193.532c0,0.199-0.018,0.469-0.217,0.469s-0.505-0.27-0.505-0.469s0.162-0.361,0.361-0.361
			C69.871,193.17,70.033,193.332,70.033,193.532z"/>
		
			<path id="path27886" sodipodi:nodetypes="csssc" fill="#FFFFFF" stroke="#C13C1B" stroke-width="0.5" stroke-linecap="round" stroke-linejoin="round" d="
			M70.069,195.154c0,0.199-0.162,0.361-0.36,0.361c-0.199,0-0.301-0.171-0.361-0.361c-0.108-0.343,0.162-0.36,0.361-0.36
			C69.907,194.793,70.069,194.955,70.069,195.154z"/>
		
			<path id="path27888" sodipodi:nodetypes="csssc" fill="#FFFFFF" stroke="#C13C1B" stroke-width="0.5" stroke-linecap="round" stroke-linejoin="round" d="
			M71.6,195.995c0,0.198,0.055,0.433-0.144,0.433c-0.199,0-0.577-0.234-0.577-0.433c0-0.199,0.161-0.361,0.36-0.361
			S71.6,195.796,71.6,195.995z"/>
	</g>
	
		<path id="path12179_2_" sodipodi:nodetypes="cccccccccccscsscc" fill="none" stroke="#000000" stroke-width="0.7" stroke-linecap="round" stroke-linejoin="round" d="
		M190.526,191.562c0,0-8.833-2-10.368-2.59s-11.045,0.846-11.045,0.846c-2.628-0.749-4.705-2.896-8.086-9.538
		c-6.125,1.563-6.794-4.247-3.366-5.711c3.703-8.492,11.269-14.089,16.628-18.898c4.807-10.915,19.308-8.739,27.618-14.908
		c8.16-11.586,4.259-29.809,9.356-31.377c29.604,23.918,17.959,58.602,8.09,49.22c5.905-3.585,1.564-32.962-6.844-39.813
		c-0.984-0.39,6.728,27.496,0.271,31.173c0,0-1.046,0.412-0.781,1.074s0.529,1.457,0.529,1.457"/>
	<path fill="#FFFFFF" stroke="#000000" stroke-width="1.0097" stroke-linecap="round" stroke-linejoin="round" d="M204.142,159.662"
		/>
	<path fill="none" stroke="#000000" d="M244.866,197.383c3.782-7.363,7.929-27.753-1.483-43.67
		c-7.643-12.925-11.882-14.607-13.883-14.962c-1.25-7.625-5.507-19.081-18.236-29.365c-5.098,1.568-1.196,19.791-9.356,31.377
		c-8.311,6.169-22.812,3.993-27.618,14.908c-5.359,4.81-12.925,10.406-16.628,18.898c-3.428,1.464-2.759,7.274,3.366,5.711
		c3.381,6.643,5.458,8.789,8.086,9.538c0.134,1.238,0.586,1.642,1.145,1.682c2.492,10.066,20.407,3.873,31.241,8.832
		c2,7.013-5.025,15.913-3.624,19.502c0,0,2.159,17.144,24.5,18.375c12.375,0,21.936-6.39,25-21.25
		C247.375,216.959,240.102,206.657,244.866,197.383z M219.592,158.435l-0.46-0.281c2.081-1.03-7.63-5.959-6.868-7.941
		c7.317-2.958-0.764-31.821,0.245-31.421C220.801,125.548,225.299,154.447,219.592,158.435z"/>
	<g>
		
			<path id="path3148" sodipodi:nodetypes="cccccc" fill="#FFFFFF" stroke="#000000" stroke-width="1.0097" stroke-linecap="round" stroke-linejoin="round" d="
			M179.534,167.028c0.782-0.444,2.395-4.024,3.111-6.132c2.787-2.787,4.813-2.613,8.56-2.72c2.189,0.398,5.403,1.708,5.771,2.521
			c0.728,1.607-3.571,2.563-5.369,3.925c-4.813,3.093-10.287,0.713-11.652,2.746C179.509,167.717,179.392,167.347,179.534,167.028z"
			/>
		
			<path id="path3150" sodipodi:nodetypes="ccc" fill="#8FB4EA" stroke="#000000" stroke-linecap="round" stroke-linejoin="round" d="
			M189.668,158.312c-2.363-0.301-4.979,0.876-6.572,2.344C182.867,169.136,194.215,165.742,189.668,158.312z"/>
		
			<path id="path3152" sodipodi:nodetypes="csssc" stroke="#000000" stroke-width="0.0505" stroke-linecap="round" stroke-linejoin="round" d="
			M188.05,161.008c0.432,0.5,0.14,1.308-0.407,1.778c-0.548,0.472-1.352,0.408-1.782-0.091c-0.431-0.5-0.287-1.143,0.259-1.615
			C186.668,160.609,187.621,160.509,188.05,161.008z"/>
		<path d="M214.637,161.05l1.062-4.578c0,0-9.234,2.699-10.628,3.163s-8.691,1.062-8.691,1.062s4.577,1.46,7.497,1.924
			S214.637,161.05,214.637,161.05z"/>
		<path fill="none" stroke="#000000" stroke-width="0.7" stroke-linecap="round" stroke-linejoin="round" d="M176.162,161.221
			c0,0,4.067-10.158,13.47-9.981c5.136,0.097,9.304,4.554,14.633,3.101"/>
	</g>
	<g>
		<path fill="#FAC53A" stroke="#000000" stroke-width="0.7" stroke-linecap="round" stroke-linejoin="round" d="M230.435,139.241
			c-1.038-1.533-2.65-2.344-4.661-2.344c-2.539,0-3.914,1.271-4.622,2.337c-3.214,4.846,0.683,16.499,2.535,21.351
			c-1.523,4.06-5.964,17.059-2.44,22.263c1.037,1.533,2.649,2.344,4.66,2.344c2.538,0,3.915-1.271,4.622-2.337
			c3.216-4.847-0.679-16.501-2.529-21.354C229.523,157.442,233.96,144.446,230.435,139.241z M223.938,141.082
			c0.26-0.392,0.704-0.842,1.836-0.842c1.152,0,1.617,0.467,1.894,0.875c1.755,2.593,0.291,9.803-1.589,15.721l-0.465-1.103
			l-0.054,0.133C223.696,150.136,222.32,143.522,223.938,141.082z M227.744,181.006c-0.261,0.393-0.704,0.842-1.837,0.842
			c-1.152,0-1.616-0.467-1.892-0.874c-1.756-2.593-0.29-9.809,1.593-15.729l0.466,1.104l0.052-0.129
			C227.988,171.953,229.363,178.567,227.744,181.006z"/>
		<g>
			<path fill="#FAC53A" stroke="#000000" stroke-width="0.7" stroke-linecap="round" stroke-linejoin="round" d="M232.426,157.988
				c0,0.875-0.709,1.583-1.583,1.583h-10.005c-0.874,0-1.583-0.708-1.583-1.583l0,0c0-0.875,0.709-1.583,1.583-1.583h10.005
				C231.717,156.405,232.426,157.113,232.426,157.988L232.426,157.988z"/>
			<path fill="#FAC53A" stroke="#000000" stroke-width="0.7" stroke-linecap="round" stroke-linejoin="round" d="M232.426,161.281
				c0,0.875-0.709,1.583-1.583,1.583h-10.005c-0.874,0-1.583-0.708-1.583-1.583l0,0c0-0.875,0.709-1.583,1.583-1.583h10.005
				C231.717,159.698,232.426,160.406,232.426,161.281L232.426,161.281z"/>
			<path fill="#FAC53A" stroke="#000000" stroke-width="0.7" stroke-linecap="round" stroke-linejoin="round" d="M232.426,164.574
				c0,0.875-0.709,1.583-1.583,1.583h-10.005c-0.874,0-1.583-0.708-1.583-1.583l0,0c0-0.875,0.709-1.583,1.583-1.583h10.005
				C231.717,162.991,232.426,163.699,232.426,164.574L232.426,164.574z"/>
		</g>
	</g>
</g>
<path d="M160.41,178.848c0,0,0.349-0.674,0.84-0.54c0.66,0.18,0.78,0.78,0.78,0.78S160.65,180.048,160.41,178.848z"/>
<path id="path18425_3_" sodipodi:nodetypes="cccc" fill="#F5CA44" stroke="#000000" stroke-linecap="round" stroke-linejoin="round" d="
	M79.358,240.998c-3.934-2.732-10.51-5.151-19.108-4.777c-2.453,0.118-3.625,0.576-3.625,0.576l-4.264-1.14
	c0,0-1.423,3.353,1.101,4.406s4.126,0.624,4.126,0.624l2.413-0.021c10.842,0.831,12.579,1.819,13.322,3.564"/>
<g id="g21589" transform="matrix(0.2074454,3.2634952e-2,-3.2634952e-2,0.2074454,845.42282,358.03925)">
	
		<path id="path21591" sodipodi:nodetypes="ccccccccccccccccccccccccccc" fill="#F5CA44" stroke="#000000" stroke-linecap="round" stroke-linejoin="round" d="
		M-3734.395,28.396c16.162,0.068,27.341,10.617,8.855,14.766c14.272-1.447,30.107,12.971,0.927,16.008
		c22.403,2.659,13.687,15.665,0.456,16.546c15.214,1.669,10.271,13.757-8.076,15.723c-20.578,4.913-43.185,8.724-65.065,12.496
		c-0.4,0.061-0.815-0.02-1.247-0.43c-4.665-3.767-6.791-10.759,2.827-17.592c-8.768-4.536-9.252-14.75,0.585-18.291
		c-8.195-6.608-7.51-12.64-0.124-18.248c-8.95-6.964-8.576-12.289,0.088-17.724c0.859-0.347,1.598-0.553,2.242-0.652
		c23.257-3.88,42.509-4.684,58.062-2.659 M-3731.476,28.711c-3.434,2.772-3.624,10.016,2.031,14.545 M-3725.99,43.595
		c-5.379,2.195-2.868,12.842,0.953,15.453 M-3723.681,59.228c-6.616,1.561-8.507,14.239,1.609,16.15 M-3724.421,75.798
		c-5.392,2.922-5.362,10.261-2.128,14.302 M-3795.085,67.639c2.279,0.108,70.521-8.34,70.521-8.34 M-3794.714,49.438
		c3.768-0.499,69.377-6.216,69.377-6.216 M-3795.481,85.976l71.773-10.253"/>
	
		<path id="path21593" sodipodi:nodetypes="cccccccccc" fill="#FFFFFF" stroke="#000000" stroke-linecap="round" stroke-linejoin="round" d="
		M-3725.99,43.595c-1.031-0.061-1.85,0.778-3.455-0.339c-6.99-5.397-3.298-13.571-2.076-14.601
		c14.395,1.193,23.222,10.917,5.934,14.799c14.267-1.447,30.153,12.679,0.973,15.716c22.403,2.659,14.121,15.503,0.895,16.385
		c13.518,1.479,10.681,11.355-2.862,14.712c-3.204-4.208-3.234-11.547,2.874-14.617c-9.397-2.052-6.592-14.865-0.657-16.507
		C-3728.858,56.437-3731.368,45.79-3725.99,43.595z"/>
</g>
</svg>
